Coordinates
version=1
nRows=12
nColumns=24
inDegrees=yes

Units are S.I. units (second, meters, Newtons, ...)
Angles are in degrees.

endheader
time	pelvis_tilt	pelvis_list	pelvis_rotation	pelvis_tx	pelvis_ty	pelvis_tz	hip_flexion_r	hip_adduction_r	hip_rotation_r	knee_angle_r	ankle_angle_r	subtalar_angle_r	mtp_angle_r	hip_flexion_l	hip_adduction_l	hip_rotation_l	knee_angle_l	ankle_angle_l	subtalar_angle_l	mtp_angle_l	lumbar_extension	lumbar_bending	lumbar_rotation
      1.14150000	      1.07739478	      2.72290424	     -1.00430479	     -0.06413219	      0.98006041	      0.34126459	    -20.82052527	     -0.72243424	     -4.67922611	     -2.64002979	     19.37011877	      2.77985163	     -0.15115561	     20.21084165	      3.79613658	      0.47480079	      4.47961507	     -4.90119108	     -9.22301995	      2.05380556	    -14.66145291	      2.09029959	      7.15224979
      1.14566667	      1.09339072	      2.91209643	     -1.01206729	     -0.05819964	      0.97936194	      0.34076590	    -20.92585778	     -1.00205066	     -4.94844783	     -3.24208103	     19.58826657	      3.21044268	     -0.01688398	     20.20065086	      4.08665416	      0.67339362	      4.29421956	     -5.14557805	     -9.39051705	      2.13884550	    -14.64260002	      1.84514880	      7.18826252
      1.14983333	      1.15181244	      3.13026848	     -1.00404540	     -0.05224034	      0.97875825	      0.34024429	    -21.06934898	     -1.30833807	     -5.25231435	     -3.86613937	     19.79199234	      3.64626283	      0.13406507	     20.16066765	      4.41438081	      0.88629445	      4.01111131	     -5.44962678	     -9.62360232	      2.23425687	    -14.66804465	      1.56169518	      7.20241570
      1.15400000	      1.17861283	      3.35515753	     -0.99524381	     -0.04626210	      0.97815373	      0.33969544	    -21.15603809	     -1.62670732	     -5.54293596	     -4.53968450	     19.97719286	      4.06230277	      0.30382257	     20.17188488	      4.74966619	      1.10569487	      3.63356607	     -5.80973200	     -9.92009313	      2.34057338	    -14.65827331	      1.27482062	      7.21512733
      1.15816667	      1.20973406	      3.60013907	     -0.98435486	     -0.04025493	      0.97759475	      0.33913129	    -21.23652130	     -1.96727028	     -5.81859866	     -5.23869682	     20.13308729	      4.44295928	      0.48456017	     20.19168414	      5.10729507	      1.31787407	      3.17541656	     -6.22562133	    -10.26175582	      2.45138153	    -14.65129048	      0.96506695	      7.21561611
      1.16233333	      1.22780390	      3.85618107	     -0.96815310	     -0.03422753	      0.97706018	      0.33855586	    -21.28846268	     -2.31956892	     -6.08746941	     -5.97008468	     20.25492375	      4.79577046	      0.68688096	     20.24112616	      5.47738440	      1.53545586	      2.63735086	     -6.68402189	    -10.65795483	      2.57274775	    -14.63387128	      0.64618913	      7.20603287
      1.16650000	      1.24654626	      4.11778801	     -0.94391989	     -0.02818786	      0.97656120	      0.33796590	    -21.32314406	     -2.67664773	     -6.34653539	     -6.74184300	     20.33965886	      5.11555199	      0.92199418	     20.30480172	      5.85601260	      1.74992332	      2.02809241	     -7.17542148	    -11.10605259	      2.70705743	    -14.60237782	      0.31265564	      7.19026706
      1.17066667	      1.25356597	      4.38843632	     -0.92083449	     -0.02212801	      0.97608844	      0.33736191	    -21.33499716	     -3.04448633	     -6.57418840	     -7.53370865	     20.38552058	      5.38095996	      1.17284277	     20.39663147	      6.24412886	      1.94063216	      1.35245232	     -7.70868011	    -11.58599208	      2.83930659	    -14.56065479	     -0.02599298	      7.16538581
      1.17483333	      1.24914564	      4.66859790	     -0.89046600	     -0.01605498	      0.97564154	      0.33673148	    -21.31892262	     -3.42212555	     -6.78565202	     -8.35839788	     20.38913262	      5.61734534	      1.45667602	     20.51274944	      6.64511169	      2.13342430	      0.62228848	     -8.25986035	    -12.10958966	      2.97559514	    -14.51308915	     -0.36642198	      7.13288310
      1.17900000	      1.24371622	      4.94257424	     -0.85159677	     -0.00997127	      0.97522978	      0.33610126	    -21.28639047	     -3.78841756	     -6.97345232	     -9.21655453	     20.33528941	      5.78881363	      1.77890273	     20.64470880	      7.04102111	      2.31038728	     -0.16488868	     -8.80857962	    -12.66066869	      3.11236172	    -14.44940500	     -0.71718502	      7.09244219
      1.18316667	      1.22759538	      5.22139841	     -0.81543286	     -0.00387812	      0.97485152	      0.33546388	    -21.22683774	     -4.16092390	     -7.12877745	    -10.10017762	     20.23030136	      5.90997226	      2.13799982	     20.79966364	      7.44048459	      2.47109991	     -0.99852942	     -9.35813583	    -13.22466051	      3.24240859	    -14.38515753	     -1.06453774	      7.04648581
      1.18733333	      1.20508542	      5.49738789	     -0.77308695	      0.00221978	      0.97450949	      0.33481476	    -21.14407819	     -4.52691721	     -7.25382196	    -11.01393108	     20.06741239	      5.96878242	      2.52888695	     20.97163750	      7.83833151	      2.61946037	     -1.87209493	     -9.88740765	    -13.79585442	      3.35922140	    -14.31163577	     -1.40948258	      6.99338735
